<svg xmlns="http://www.w3.org/2000/svg" xmlns:xlink="http://www.w3.org/1999/xlink" xmlns:serif="http://www.serif.com/" width="41" height="26" viewBox="0 0 41 26" version="1.1" xml:space="preserve" style="fill-rule:evenodd;clip-rule:evenodd;stroke-linejoin:round;stroke-miterlimit:1.41421;">
    <g id="Layer1">
        <g>
            <path d="M23.621,8.277C23.663,8.132 23.714,8.014 23.768,7.937C22.629,7.474 22.077,7.413 21.155,6.8C20.232,6.188 19.556,5.419 19.671,4.855C19.785,4.29 20.559,2.896 21.392,2.733C22.225,2.57 25.165,2.199 25.817,2.179C26.468,2.159 27.374,2.234 27.679,2.232C27.894,1.87 27.45,1.81 28.067,1.164C28.684,0.518 29.391,0.4 29.891,0.666C30.392,0.932 31.067,1.644 30.904,2.024C30.869,2.104 30.826,2.175 30.778,2.24C30.823,2.282 30.867,2.322 30.912,2.356C30.969,2.397 31.174,2.56 31.016,2.594C30.884,2.623 30.733,2.554 30.595,2.461C30.465,2.608 30.34,2.754 30.289,2.967C30.194,3.367 29.871,3.59 29.704,3.756C29.442,4.018 29.235,3.858 28.849,3.737C28.463,3.616 28.172,3.867 28.2,4.34C28.229,4.813 27.755,4.923 27.903,5.313C28.024,5.632 28.032,6.134 28.567,6.266C28.604,6.253 28.641,6.241 28.681,6.234C29.055,6.168 29.401,6.153 29.799,6.153C29.946,6.153 30.093,6.153 30.24,6.153C30.249,6.153 30.37,6.162 30.369,6.145C30.369,6.144 30.178,6.074 30.165,6.068C29.998,5.995 29.712,5.902 29.53,5.902C29.507,5.902 29.261,5.893 29.26,5.856C29.26,5.837 29.503,5.751 29.521,5.751C29.816,5.751 30.132,5.732 30.436,5.732C30.459,5.732 30.783,5.739 30.783,5.723C30.783,5.675 30.361,5.586 30.37,5.567C30.395,5.517 30.529,5.51 30.574,5.497C30.777,5.441 30.989,5.442 31.204,5.442C31.244,5.442 31.457,5.463 31.472,5.433C31.511,5.355 31.37,5.329 31.328,5.314C31.241,5.282 30.681,5.141 30.819,5.037C30.984,4.913 31.388,4.988 31.553,5.06C31.704,5.126 31.927,5.087 32.09,5.145C32.13,5.159 32.508,5.253 32.539,5.19C32.636,4.993 32.016,4.932 32.07,4.781C32.139,4.585 32.866,4.698 33.011,4.802C33.08,4.852 33.241,4.791 33.318,4.829C33.391,4.866 33.528,4.826 33.477,4.725C33.467,4.704 33.289,4.498 33.319,4.478C33.366,4.448 33.545,4.478 33.609,4.478C33.906,4.478 34.262,4.565 34.518,4.694C34.686,4.777 34.451,4.376 34.525,4.32C34.74,4.159 35.12,4.439 35.307,4.486C35.385,4.505 35.504,4.409 35.566,4.368C35.718,4.27 35.757,4.109 35.801,3.951C35.836,3.823 35.982,3.684 36.068,3.581C36.134,3.502 36.187,3.214 36.27,3.172C36.295,3.159 36.585,3.18 36.631,3.193C36.662,3.202 36.732,3.623 36.747,3.676C36.806,3.886 36.888,4.297 37.017,4.476C37.108,4.602 36.956,4.88 37.026,5.019C37.027,5.023 37.029,5.026 37.031,5.03C37.202,5.244 37.336,5.484 37.554,5.74C37.897,6.144 38.769,7.657 39.007,7.955C39.245,8.254 39.83,9.066 39.877,9.233C39.925,9.399 40.01,9.639 40.143,9.799C40.276,9.959 40.157,10.417 40.082,10.622C40.008,10.826 39.667,10.881 39.534,10.932C39.401,10.983 39.126,11.057 38.93,11.02C38.735,10.982 38.657,10.798 38.265,10.502C37.873,10.206 37.479,9.576 37.198,9.262C36.753,9.212 36.27,9.031 36.037,8.954C35.804,8.877 35.334,8.783 35.142,8.592C34.767,9.01 32.342,11.204 31.962,11.442C31.908,12.584 31.936,13.673 31.763,14.055C31.598,14.419 31.517,14.775 31.662,15.079C32.366,16.337 33.363,17.961 33.483,18.167C33.665,18.476 33.774,18.415 33.956,18.769C34.139,19.124 34.944,20.733 35.518,21.182C36.091,21.632 36.719,22.5 36.973,22.737C37.227,22.974 37.835,23.278 37.963,23.53C38.091,23.782 38.547,24.366 38.497,24.483C38.447,24.599 36.967,24.519 36.867,24.269C36.768,24.019 36.744,23.677 36.843,23.525C36.615,23.402 36.218,23.034 35.841,22.956C35.463,22.877 34.056,20.684 33.853,20.349C33.649,20.013 33.522,20.16 33.124,19.793C32.726,19.425 32.595,18.89 32.048,18.624C31.588,18.4 30.559,16.882 29.879,16.165C29.792,16.195 29.708,16.226 29.629,16.257C29.418,16.34 28.989,16.388 28.535,16.423C28.537,16.425 28.539,16.427 28.541,16.429C28.519,16.428 28.497,16.427 28.474,16.428C28.448,16.43 28.423,16.431 28.397,16.433C27.742,16.51 26.668,17.329 26.352,17.724C26.011,18.149 25.267,18.56 24.772,19.203C24.475,19.59 24.012,20.429 23.54,21.099C23.226,21.544 22.792,21.917 22.82,22.025C22.889,22.295 22.182,22.989 22.096,23.127C22.009,23.264 22.052,23.532 22.203,23.818C22.354,24.105 22.218,24.88 22.092,25.017C21.966,25.154 20.737,24.188 20.852,23.941C20.966,23.695 21.352,23.363 21.363,23.162C21.374,22.961 21.626,22.455 21.745,22.209C21.863,21.963 22.876,20.833 23.007,20.493C23.138,20.152 23.525,19.017 23.672,18.665C23.82,18.313 24.41,17.775 24.676,17.328C24.765,17.179 24.892,16.974 25.037,16.749C23.782,16.529 22.356,15.953 21.64,15.742C20.481,15.401 17.754,14.13 17.052,14.149C16.085,14.174 15.489,14.455 14.69,14.752C14.638,14.777 14.577,14.801 14.504,14.822C14.492,14.826 14.48,14.829 14.468,14.833C14.437,14.844 14.405,14.855 14.374,14.867C13.55,15.183 12.998,16.068 12.575,16.177C12.017,16.321 11.342,17.942 10.969,18.212C10.596,18.482 9.421,19.512 9.298,19.703C9.196,19.862 9.133,19.964 8.891,20.091C8.497,20.296 7.452,21.532 7.302,22.015C7.152,22.498 7.008,22.846 6.743,22.942C6.437,23.052 6.059,23.009 5.916,23.377C5.773,23.745 5.416,24.741 4.668,24.886C4.184,24.986 4.324,24.632 4.324,24.221C4.324,23.81 4.489,23.144 4.781,23.06C5.074,22.976 5.271,23.052 5.464,22.859C5.657,22.667 5.629,22.455 5.812,22.227C5.995,21.999 6.655,21.617 6.824,21.193C6.994,20.77 7.655,19.621 7.746,19.195C7.837,18.769 8.664,17.902 9.009,17.354C8.186,17.931 6.333,19.066 6.007,19.348C5.682,19.629 5.225,20.508 4.981,20.635C4.737,20.763 4.211,21.047 3.929,21.153C3.648,21.258 3.22,21.427 2.781,21.555C2.342,21.684 2.021,21.749 1.858,21.699C1.695,21.649 1.838,20.503 2.413,20.104C2.851,20.126 3.232,20.271 3.52,20.21C3.808,20.149 3.7,19.769 3.889,19.649C4.078,19.529 4.794,19.42 4.931,19.226C5.069,19.032 6.39,17.689 6.684,17.311C6.977,16.933 7.476,15.987 7.725,15.786C7.974,15.585 8.682,15.542 9.209,15.267C9.587,15.07 10.165,14.596 10.459,14.095C10.252,13.058 10.451,11.668 10.445,10.962C10.441,10.474 10.552,9.875 10.754,9.375C10.762,9.341 10.76,9.314 10.732,9.305C10.336,9.169 9.719,9.702 9.37,9.762C9.188,9.793 8.606,10.028 8.588,10.028C8.248,10.028 8.657,9.881 8.658,9.794C8.659,9.77 8.259,9.866 8.227,9.878C7.819,10.038 7.596,10.144 7.303,10.22C7.223,10.241 6.653,10.36 6.655,10.359C6.791,10.281 6.89,10.238 7.022,10.149C7.058,10.124 7.084,10.105 7.132,10.097C7.156,10.093 7.227,10.08 7.202,10.08C6.829,10.08 6.306,10.459 5.97,10.575C5.868,10.61 5.723,10.582 5.607,10.619C5.406,10.681 5.232,10.732 5.012,10.775C4.947,10.787 4.809,10.821 4.81,10.775C4.81,10.756 4.981,10.718 5.002,10.711C5.139,10.665 5.265,10.557 5.367,10.488C5.408,10.46 5.437,10.432 5.472,10.399C5.489,10.384 5.549,10.352 5.547,10.351C5.446,10.317 5.169,10.391 5.073,10.407C4.875,10.441 4.681,10.57 4.482,10.619C4.386,10.643 4.225,10.724 4.144,10.764C3.987,10.842 3.552,10.848 3.356,10.848C3.268,10.848 2.687,10.893 2.654,10.861C2.643,10.849 2.787,10.762 2.805,10.76C3.041,10.732 3.384,10.651 3.603,10.583C3.68,10.56 3.798,10.485 3.871,10.453C3.906,10.438 3.989,10.353 3.957,10.371C3.529,10.615 2.508,10.596 1.977,10.661C1.821,10.68 1.48,10.744 1.338,10.8C1.318,10.808 1.062,10.911 1.062,10.91C1.066,10.683 1.827,10.344 2.078,10.267C2.166,10.24 2.321,10.237 2.4,10.21C2.412,10.206 2.515,10.218 2.515,10.203C2.516,10.18 2.225,10.189 2.198,10.18C1.947,10.094 1.334,10.131 1.043,10.131C0.932,10.131 0.755,10.14 0.65,10.16C0.605,10.168 0.437,10.16 0.483,10.16C0.614,10.16 0.928,10.059 1.065,10.033C1.489,9.954 2.347,9.905 2.727,9.72C2.851,9.659 3.136,9.634 3.259,9.565C3.276,9.556 3.203,9.565 3.181,9.565L2.56,9.565C2.193,9.565 1.775,9.391 1.432,9.425C1.38,9.43 1.05,9.474 1.059,9.47C1.206,9.406 1.555,9.303 1.722,9.274C1.773,9.266 1.845,9.254 1.894,9.244C1.922,9.239 2.018,9.239 1.994,9.228C1.754,9.122 1.165,9.13 0.939,9.242C0.897,9.263 0.722,9.351 0.589,9.439C0.615,9.396 0.719,9.27 0.768,9.241C0.911,9.154 1.149,8.965 1.332,8.965C1.8,8.965 2.681,8.901 3.152,8.946C3.311,8.961 3.57,8.968 3.738,8.968C3.756,8.968 3.911,8.95 3.911,8.936C3.913,8.871 4.301,8.814 4.483,8.814C5.109,8.814 5.782,9.113 6.428,9.035C6.698,9.003 6.92,8.958 7.183,8.914C7.223,8.907 7.293,8.884 7.332,8.884C7.345,8.884 7.443,8.884 7.443,8.884C7.443,8.874 7.328,8.855 7.312,8.85C7.226,8.82 7.121,8.792 7.033,8.775C7.015,8.772 6.866,8.752 6.89,8.744C7.05,8.69 7.484,8.756 7.616,8.788C7.722,8.814 7.924,8.788 8.041,8.788C8.427,8.788 8.786,8.795 9.145,8.727C9.276,8.702 9.445,8.685 9.575,8.647C9.58,8.645 9.799,8.641 9.799,8.639C9.8,8.61 10.434,8.638 10.809,8.638C10.904,8.638 11.117,8.635 11.234,8.598C11.306,8.529 11.381,8.473 11.46,8.431C12.097,8.099 14.378,7.607 15.54,7.548C16.702,7.488 18.511,8.017 19.056,8.082C19.601,8.146 21.197,8.769 22.583,8.47C22.925,8.396 23.272,8.335 23.621,8.277ZM26.993,7.539C26.684,7.421 26.492,7.235 26.306,6.924C26.004,6.417 26.069,5.994 25.865,6.01C25.66,6.025 24.701,6.126 24.377,6.079C24.663,6.39 25.639,7.042 25.742,7.446C25.782,7.603 25.704,7.763 25.586,7.933C26.013,7.841 26.441,7.729 26.871,7.581C26.911,7.567 26.952,7.553 26.993,7.539Z" fill="lightblue"/>
        </g>
    </g>
</svg>